<svg width="46" height="46" viewBox="0 0 46 46" fill="none" xmlns="http://www.w3.org/2000/svg">
<path d="M22.7594 14.3786C24.0586 14.3786 25.1507 14.8117 26.0733 15.6966C26.9959 16.5816 27.4666 17.7113 27.4666 19.0858C27.4666 21.0628 26.5252 22.4937 24.6423 23.3787V39.7972H20.8766V23.3787C18.9937 22.4937 18.0523 21.0628 18.0523 19.0858C18.0523 17.7113 18.5419 16.5816 19.4456 15.6966C20.3494 14.8117 21.4603 14.3786 22.7594 14.3786ZM31.59 10.2364C33.9436 12.5899 35.2051 15.5272 35.3746 19.0858C35.3746 22.4749 34.1131 25.4498 31.59 27.9728L29.3494 25.6758C31.2323 23.9624 32.1737 21.7594 32.1737 19.0858C32.1737 16.5816 31.2323 14.3786 29.3494 12.4958L31.59 10.2364ZM11.6318 7.93927C8.63804 10.933 7.13176 14.6422 7.13176 19.0858C7.13176 23.5293 8.63804 27.182 11.6318 30.1758L9.42884 32.4729C5.81376 28.6507 3.93091 24.1695 3.93091 19.0858C3.93091 14.0021 5.81376 9.55852 9.42884 5.73633L11.6318 7.93927ZM36.0901 5.73633C39.7051 9.55852 41.588 14.0021 41.588 19.0858C41.588 24.3578 39.7051 28.8201 36.0901 32.4729L33.8871 30.1758C36.8809 27.182 38.3871 23.4728 38.3871 19.0858C38.3871 14.6987 36.8809 10.933 33.8871 7.93927L36.0901 5.73633ZM13.9289 10.2364L16.1695 12.4958C14.2866 14.228 13.3452 16.4121 13.3452 19.0858C13.3452 21.59 14.2866 23.7929 16.1695 25.6758L13.9289 27.9728C11.4058 25.4498 10.1443 22.4749 10.1443 19.0858C10.1443 15.6966 11.4058 12.7594 13.9289 10.2364Z" fill="white"/>
</svg>
