<svg width="858" height="858" viewBox="0 0 858 858" fill="none" xmlns="http://www.w3.org/2000/svg">
<path d="M0 360.52V310.474H124.189V360.52H0Z" fill="url(#paint0_linear_29222_57)" fill-opacity="0.58"/>
<path d="M310.555 0H360.487V360.487H310.555V0Z" fill="url(#paint1_linear_29222_57)" fill-opacity="0.58"/>
<path d="M124.189 360.52V310.474H360.52V360.52H124.189Z" fill="url(#paint2_linear_29222_57)" fill-opacity="0.58"/>
<path d="M124.222 124.222H174.154V174.154H124.222V124.222Z" fill="url(#paint3_linear_29222_57)" fill-opacity="0.58"/>
<path d="M124.222 186.333H174.154V484.709H124.222V186.333Z" fill="url(#paint4_linear_29222_57)" fill-opacity="0.58"/>
<path d="M186.333 174.154V124.222H484.709V174.154H186.333Z" fill="url(#paint5_linear_29222_57)" fill-opacity="0.58"/>
<path d="M186.333 174.154V124.222H360.487V174.154H186.333Z" fill="url(#paint6_linear_29222_57)" fill-opacity="0.58"/>
<path d="M310.555 124.222L360.487 124.222V174.154L310.555 174.154V124.222Z" fill="url(#paint7_linear_29222_57)" fill-opacity="0.58"/>
<path d="M124.222 310.555H174.154V360.487H124.222V310.555Z" fill="url(#paint8_linear_29222_57)" fill-opacity="0.58"/>
<path d="M372.661 360.52V310.474H496.85V360.52H372.661Z" fill="url(#paint9_linear_29222_57)" fill-opacity="0.28"/>
<path d="M683.216 0H733.148V360.487H683.216V0Z" fill="url(#paint10_linear_29222_57)" fill-opacity="0.28"/>
<path d="M496.85 360.52V310.474H733.181V360.52H496.85Z" fill="url(#paint11_linear_29222_57)" fill-opacity="0.28"/>
<path d="M496.883 124.222H546.815V174.154H496.883V124.222Z" fill="url(#paint12_linear_29222_57)" fill-opacity="0.28"/>
<path d="M496.883 186.333H546.815V484.709H496.883V186.333Z" fill="url(#paint13_linear_29222_57)" fill-opacity="0.28"/>
<path d="M558.994 174.154V124.222H857.37V174.154H558.994Z" fill="url(#paint14_linear_29222_57)" fill-opacity="0.28"/>
<path d="M558.994 174.154V124.222H733.148V174.154H558.994Z" fill="url(#paint15_linear_29222_57)" fill-opacity="0.28"/>
<path d="M683.216 124.222L733.148 124.222V174.154L683.216 174.154V124.222Z" fill="url(#paint16_linear_29222_57)" fill-opacity="0.28"/>
<path d="M496.883 310.555H546.815V360.487H496.883V310.555Z" fill="url(#paint17_linear_29222_57)" fill-opacity="0.28"/>
<path d="M0 733.181V683.134H124.189V733.181H0Z" fill="url(#paint18_linear_29222_57)" fill-opacity="0.58"/>
<path d="M310.555 372.661H360.487V733.148H310.555V372.661Z" fill="url(#paint19_linear_29222_57)" fill-opacity="0.58"/>
<path d="M124.189 733.181V683.134H360.52V733.181H124.189Z" fill="url(#paint20_linear_29222_57)" fill-opacity="0.58"/>
<path d="M124.222 496.883H174.154V546.815H124.222V496.883Z" fill="url(#paint21_linear_29222_57)" fill-opacity="0.58"/>
<path d="M124.222 558.994H174.154V857.37H124.222V558.994Z" fill="url(#paint22_linear_29222_57)" fill-opacity="0.58"/>
<path d="M186.333 546.815V496.883H484.709V546.815H186.333Z" fill="url(#paint23_linear_29222_57)" fill-opacity="0.58"/>
<path d="M186.333 546.815V496.883H360.487V546.815H186.333Z" fill="url(#paint24_linear_29222_57)" fill-opacity="0.58"/>
<path d="M310.555 496.883L360.487 496.883V546.815L310.555 546.815V496.883Z" fill="url(#paint25_linear_29222_57)" fill-opacity="0.58"/>
<path d="M124.222 683.216H174.154V733.148H124.222V683.216Z" fill="url(#paint26_linear_29222_57)" fill-opacity="0.58"/>
<path d="M372.661 733.181V683.134H496.85V733.181H372.661Z" fill="url(#paint27_linear_29222_57)" fill-opacity="0.44"/>
<path d="M683.216 372.661H733.148V733.148H683.216V372.661Z" fill="url(#paint28_linear_29222_57)" fill-opacity="0.44"/>
<path d="M496.85 733.181V683.134H733.181V733.181H496.85Z" fill="url(#paint29_linear_29222_57)" fill-opacity="0.44"/>
<path d="M496.883 496.883H546.815V546.815H496.883V496.883Z" fill="url(#paint30_linear_29222_57)" fill-opacity="0.44"/>
<path d="M496.883 558.994H546.815V857.37H496.883V558.994Z" fill="url(#paint31_linear_29222_57)" fill-opacity="0.44"/>
<path d="M558.994 546.815V496.883H857.37V546.815H558.994Z" fill="url(#paint32_linear_29222_57)" fill-opacity="0.44"/>
<path d="M558.994 546.815V496.883H733.148V546.815H558.994Z" fill="url(#paint33_linear_29222_57)" fill-opacity="0.44"/>
<path d="M683.216 496.883L733.148 496.883V546.815L683.216 546.815V496.883Z" fill="url(#paint34_linear_29222_57)" fill-opacity="0.44"/>
<path d="M496.883 683.216H546.815V733.148H496.883V683.216Z" fill="url(#paint35_linear_29222_57)" fill-opacity="0.44"/>
<defs>
<linearGradient id="paint0_linear_29222_57" x1="150.669" y1="-4.27463e-06" x2="486.958" y2="156.849" gradientUnits="userSpaceOnUse">
<stop stop-color="#FF962D"/>
<stop offset="1" stop-color="#E20038"/>
</linearGradient>
<linearGradient id="paint1_linear_29222_57" x1="150.669" y1="-4.27463e-06" x2="486.958" y2="156.849" gradientUnits="userSpaceOnUse">
<stop stop-color="#FF962D"/>
<stop offset="1" stop-color="#E20038"/>
</linearGradient>
<linearGradient id="paint2_linear_29222_57" x1="150.669" y1="-4.27463e-06" x2="486.958" y2="156.849" gradientUnits="userSpaceOnUse">
<stop stop-color="#FF962D"/>
<stop offset="1" stop-color="#E20038"/>
</linearGradient>
<linearGradient id="paint3_linear_29222_57" x1="150.669" y1="-4.27463e-06" x2="486.958" y2="156.849" gradientUnits="userSpaceOnUse">
<stop stop-color="#FF962D"/>
<stop offset="1" stop-color="#E20038"/>
</linearGradient>
<linearGradient id="paint4_linear_29222_57" x1="150.669" y1="-4.27463e-06" x2="486.958" y2="156.849" gradientUnits="userSpaceOnUse">
<stop stop-color="#FF962D"/>
<stop offset="1" stop-color="#E20038"/>
</linearGradient>
<linearGradient id="paint5_linear_29222_57" x1="150.669" y1="-4.27463e-06" x2="486.958" y2="156.849" gradientUnits="userSpaceOnUse">
<stop stop-color="#FF962D"/>
<stop offset="1" stop-color="#E20038"/>
</linearGradient>
<linearGradient id="paint6_linear_29222_57" x1="150.669" y1="-4.27463e-06" x2="486.958" y2="156.849" gradientUnits="userSpaceOnUse">
<stop stop-color="#FF962D"/>
<stop offset="1" stop-color="#E20038"/>
</linearGradient>
<linearGradient id="paint7_linear_29222_57" x1="150.669" y1="-4.27463e-06" x2="486.958" y2="156.849" gradientUnits="userSpaceOnUse">
<stop stop-color="#FF962D"/>
<stop offset="1" stop-color="#E20038"/>
</linearGradient>
<linearGradient id="paint8_linear_29222_57" x1="150.669" y1="-4.27463e-06" x2="486.958" y2="156.849" gradientUnits="userSpaceOnUse">
<stop stop-color="#FF962D"/>
<stop offset="1" stop-color="#E20038"/>
</linearGradient>
<linearGradient id="paint9_linear_29222_57" x1="523.329" y1="-4.27463e-06" x2="859.619" y2="156.849" gradientUnits="userSpaceOnUse">
<stop stop-color="#FF7396" stop-opacity="0.46"/>
<stop offset="1" stop-color="#E20038" stop-opacity="0.61"/>
</linearGradient>
<linearGradient id="paint10_linear_29222_57" x1="523.329" y1="-4.27463e-06" x2="859.619" y2="156.849" gradientUnits="userSpaceOnUse">
<stop stop-color="#FF7396" stop-opacity="0.46"/>
<stop offset="1" stop-color="#E20038" stop-opacity="0.61"/>
</linearGradient>
<linearGradient id="paint11_linear_29222_57" x1="523.329" y1="-4.27463e-06" x2="859.619" y2="156.849" gradientUnits="userSpaceOnUse">
<stop stop-color="#FF7396" stop-opacity="0.46"/>
<stop offset="1" stop-color="#E20038" stop-opacity="0.61"/>
</linearGradient>
<linearGradient id="paint12_linear_29222_57" x1="523.329" y1="-4.27463e-06" x2="859.619" y2="156.849" gradientUnits="userSpaceOnUse">
<stop stop-color="#FF7396" stop-opacity="0.46"/>
<stop offset="1" stop-color="#E20038" stop-opacity="0.61"/>
</linearGradient>
<linearGradient id="paint13_linear_29222_57" x1="523.329" y1="-4.27463e-06" x2="859.619" y2="156.849" gradientUnits="userSpaceOnUse">
<stop stop-color="#FF7396" stop-opacity="0.46"/>
<stop offset="1" stop-color="#E20038" stop-opacity="0.61"/>
</linearGradient>
<linearGradient id="paint14_linear_29222_57" x1="523.329" y1="-4.27463e-06" x2="859.619" y2="156.849" gradientUnits="userSpaceOnUse">
<stop stop-color="#FF7396" stop-opacity="0.46"/>
<stop offset="1" stop-color="#E20038" stop-opacity="0.61"/>
</linearGradient>
<linearGradient id="paint15_linear_29222_57" x1="523.329" y1="-4.27463e-06" x2="859.619" y2="156.849" gradientUnits="userSpaceOnUse">
<stop stop-color="#FF7396" stop-opacity="0.46"/>
<stop offset="1" stop-color="#E20038" stop-opacity="0.61"/>
</linearGradient>
<linearGradient id="paint16_linear_29222_57" x1="523.329" y1="-4.27463e-06" x2="859.619" y2="156.849" gradientUnits="userSpaceOnUse">
<stop stop-color="#FF7396" stop-opacity="0.46"/>
<stop offset="1" stop-color="#E20038" stop-opacity="0.61"/>
</linearGradient>
<linearGradient id="paint17_linear_29222_57" x1="523.329" y1="-4.27463e-06" x2="859.619" y2="156.849" gradientUnits="userSpaceOnUse">
<stop stop-color="#FF7396" stop-opacity="0.46"/>
<stop offset="1" stop-color="#E20038" stop-opacity="0.61"/>
</linearGradient>
<linearGradient id="paint18_linear_29222_57" x1="150.669" y1="372.661" x2="486.958" y2="529.509" gradientUnits="userSpaceOnUse">
<stop stop-color="#FF962D" stop-opacity="0.46"/>
<stop offset="1" stop-color="#E20038" stop-opacity="0.61"/>
</linearGradient>
<linearGradient id="paint19_linear_29222_57" x1="150.669" y1="372.661" x2="486.958" y2="529.509" gradientUnits="userSpaceOnUse">
<stop stop-color="#FF962D" stop-opacity="0.46"/>
<stop offset="1" stop-color="#E20038" stop-opacity="0.61"/>
</linearGradient>
<linearGradient id="paint20_linear_29222_57" x1="150.669" y1="372.661" x2="486.958" y2="529.509" gradientUnits="userSpaceOnUse">
<stop stop-color="#FF962D" stop-opacity="0.46"/>
<stop offset="1" stop-color="#E20038" stop-opacity="0.61"/>
</linearGradient>
<linearGradient id="paint21_linear_29222_57" x1="150.669" y1="372.661" x2="486.958" y2="529.509" gradientUnits="userSpaceOnUse">
<stop stop-color="#FF962D" stop-opacity="0.46"/>
<stop offset="1" stop-color="#E20038" stop-opacity="0.61"/>
</linearGradient>
<linearGradient id="paint22_linear_29222_57" x1="150.669" y1="372.661" x2="486.958" y2="529.509" gradientUnits="userSpaceOnUse">
<stop stop-color="#FF962D" stop-opacity="0.46"/>
<stop offset="1" stop-color="#E20038" stop-opacity="0.61"/>
</linearGradient>
<linearGradient id="paint23_linear_29222_57" x1="150.669" y1="372.661" x2="486.958" y2="529.509" gradientUnits="userSpaceOnUse">
<stop stop-color="#FF962D" stop-opacity="0.46"/>
<stop offset="1" stop-color="#E20038" stop-opacity="0.61"/>
</linearGradient>
<linearGradient id="paint24_linear_29222_57" x1="150.669" y1="372.661" x2="486.958" y2="529.509" gradientUnits="userSpaceOnUse">
<stop stop-color="#FF962D" stop-opacity="0.46"/>
<stop offset="1" stop-color="#E20038" stop-opacity="0.61"/>
</linearGradient>
<linearGradient id="paint25_linear_29222_57" x1="150.669" y1="372.661" x2="486.958" y2="529.509" gradientUnits="userSpaceOnUse">
<stop stop-color="#FF962D" stop-opacity="0.46"/>
<stop offset="1" stop-color="#E20038" stop-opacity="0.61"/>
</linearGradient>
<linearGradient id="paint26_linear_29222_57" x1="150.669" y1="372.661" x2="486.958" y2="529.509" gradientUnits="userSpaceOnUse">
<stop stop-color="#FF962D" stop-opacity="0.46"/>
<stop offset="1" stop-color="#E20038" stop-opacity="0.61"/>
</linearGradient>
<linearGradient id="paint27_linear_29222_57" x1="523.329" y1="372.661" x2="859.619" y2="529.509" gradientUnits="userSpaceOnUse">
<stop stop-color="#FF7396" stop-opacity="0.65"/>
<stop offset="1" stop-color="#E20038" stop-opacity="0"/>
</linearGradient>
<linearGradient id="paint28_linear_29222_57" x1="523.329" y1="372.661" x2="859.619" y2="529.509" gradientUnits="userSpaceOnUse">
<stop stop-color="#FF7396" stop-opacity="0.65"/>
<stop offset="1" stop-color="#E20038" stop-opacity="0"/>
</linearGradient>
<linearGradient id="paint29_linear_29222_57" x1="523.329" y1="372.661" x2="859.619" y2="529.509" gradientUnits="userSpaceOnUse">
<stop stop-color="#FF7396" stop-opacity="0.65"/>
<stop offset="1" stop-color="#E20038" stop-opacity="0"/>
</linearGradient>
<linearGradient id="paint30_linear_29222_57" x1="523.329" y1="372.661" x2="859.619" y2="529.509" gradientUnits="userSpaceOnUse">
<stop stop-color="#FF7396" stop-opacity="0.65"/>
<stop offset="1" stop-color="#E20038" stop-opacity="0"/>
</linearGradient>
<linearGradient id="paint31_linear_29222_57" x1="523.329" y1="372.661" x2="859.619" y2="529.509" gradientUnits="userSpaceOnUse">
<stop stop-color="#FF7396" stop-opacity="0.65"/>
<stop offset="1" stop-color="#E20038" stop-opacity="0"/>
</linearGradient>
<linearGradient id="paint32_linear_29222_57" x1="523.329" y1="372.661" x2="859.619" y2="529.509" gradientUnits="userSpaceOnUse">
<stop stop-color="#FF7396" stop-opacity="0.65"/>
<stop offset="1" stop-color="#E20038" stop-opacity="0"/>
</linearGradient>
<linearGradient id="paint33_linear_29222_57" x1="523.329" y1="372.661" x2="859.619" y2="529.509" gradientUnits="userSpaceOnUse">
<stop stop-color="#FF7396" stop-opacity="0.65"/>
<stop offset="1" stop-color="#E20038" stop-opacity="0"/>
</linearGradient>
<linearGradient id="paint34_linear_29222_57" x1="523.329" y1="372.661" x2="859.619" y2="529.509" gradientUnits="userSpaceOnUse">
<stop stop-color="#FF7396" stop-opacity="0.65"/>
<stop offset="1" stop-color="#E20038" stop-opacity="0"/>
</linearGradient>
<linearGradient id="paint35_linear_29222_57" x1="523.329" y1="372.661" x2="859.619" y2="529.509" gradientUnits="userSpaceOnUse">
<stop stop-color="#FF7396" stop-opacity="0.65"/>
<stop offset="1" stop-color="#E20038" stop-opacity="0"/>
</linearGradient>
</defs>
</svg>
