<svg width="421" height="409" viewBox="0 0 421 409" fill="none" xmlns="http://www.w3.org/2000/svg">
<g style="mix-blend-mode:multiply" opacity="0.3">
<path d="M327.986 -1.43367e-05L282.456 -1.23465e-05L282.456 112.982L327.986 112.982L327.986 -1.43367e-05Z" fill="url(#paint0_linear_1_63)" fill-opacity="0.58"/>
<path d="M1.23498e-05 282.53L1.43354e-05 327.957L327.957 327.957L327.957 282.53L1.23498e-05 282.53Z" fill="url(#paint1_linear_1_63)" fill-opacity="0.58"/>
<path d="M327.986 112.982L282.456 112.982L282.456 327.986L327.986 327.986L327.986 112.982Z" fill="url(#paint2_linear_1_63)" fill-opacity="0.58"/>
<path d="M113.012 113.012L113.012 158.438L158.438 158.438L158.438 113.012L113.012 113.012Z" fill="url(#paint3_linear_1_63)" fill-opacity="0.58"/>
<path d="M169.518 113.012L169.518 158.438L440.969 158.438L440.969 113.012L169.518 113.012Z" fill="url(#paint4_linear_1_63)" fill-opacity="0.58"/>
<path d="M158.438 169.518L113.012 169.518L113.012 440.969L158.438 440.969L158.438 169.518Z" fill="url(#paint5_linear_1_63)" fill-opacity="0.58"/>
<path d="M158.438 169.518L113.012 169.518L113.012 327.957L158.438 327.957L158.438 169.518Z" fill="url(#paint6_linear_1_63)" fill-opacity="0.58"/>
<path d="M113.012 282.53L113.012 327.957L158.438 327.957L158.438 282.53L113.012 282.53Z" fill="url(#paint7_linear_1_63)" fill-opacity="0.58"/>
<path d="M282.53 113.012L282.53 158.438L327.957 158.438L327.957 113.012L282.53 113.012Z" fill="url(#paint8_linear_1_63)" fill-opacity="0.58"/>
<path d="M327.986 339.031L282.456 339.031L282.456 452.014L327.986 452.014L327.986 339.031Z" fill="url(#paint9_linear_1_63)" fill-opacity="0.58"/>
<path d="M0.00013442 621.562L0.000136406 666.988L327.957 666.988L327.957 621.562L0.00013442 621.562Z" fill="url(#paint10_linear_1_63)" fill-opacity="0.58"/>
<path d="M327.986 452.014L282.456 452.014L282.456 667.018L327.986 667.018L327.986 452.014Z" fill="url(#paint11_linear_1_63)" fill-opacity="0.58"/>
<path d="M113.012 452.043L113.012 497.47L158.439 497.47L158.439 452.043L113.012 452.043Z" fill="url(#paint12_linear_1_63)" fill-opacity="0.58"/>
<path d="M169.518 452.043L169.518 497.47L440.969 497.47L440.969 452.043L169.518 452.043Z" fill="url(#paint13_linear_1_63)" fill-opacity="0.58"/>
<path d="M158.439 508.549L113.012 508.549L113.012 780L158.439 780L158.439 508.549Z" fill="url(#paint14_linear_1_63)" fill-opacity="0.58"/>
<path d="M158.439 508.549L113.012 508.549L113.012 666.988L158.439 666.988L158.439 508.549Z" fill="url(#paint15_linear_1_63)" fill-opacity="0.58"/>
<path d="M113.012 621.562L113.012 666.988L158.439 666.988L158.439 621.562L113.012 621.562Z" fill="url(#paint16_linear_1_63)" fill-opacity="0.58"/>
<path d="M282.53 452.043L282.53 497.47L327.957 497.47L327.957 452.043L282.53 452.043Z" fill="url(#paint17_linear_1_63)" fill-opacity="0.58"/>
<path d="M667.018 -1.43367e-05L621.487 -1.23465e-05L621.487 112.982L667.018 112.982L667.018 -1.43367e-05Z" fill="url(#paint18_linear_1_63)" fill-opacity="0.58"/>
<path d="M339.031 282.53L339.031 327.957L666.988 327.957L666.988 282.53L339.031 282.53Z" fill="url(#paint19_linear_1_63)" fill-opacity="0.58"/>
<path d="M667.018 112.982L621.487 112.982L621.487 327.986L667.018 327.986L667.018 112.982Z" fill="url(#paint20_linear_1_63)" fill-opacity="0.58"/>
<path d="M452.043 113.012L452.043 158.438L497.47 158.438L497.47 113.012L452.043 113.012Z" fill="url(#paint21_linear_1_63)" fill-opacity="0.58"/>
<path d="M508.549 113.012L508.549 158.438L780 158.438L780 113.012L508.549 113.012Z" fill="url(#paint22_linear_1_63)" fill-opacity="0.58"/>
<path d="M497.47 169.518L452.043 169.518L452.043 440.969L497.47 440.969L497.47 169.518Z" fill="url(#paint23_linear_1_63)" fill-opacity="0.58"/>
<path d="M497.47 169.518L452.043 169.518L452.043 327.957L497.47 327.957L497.47 169.518Z" fill="url(#paint24_linear_1_63)" fill-opacity="0.58"/>
<path d="M452.043 282.53L452.043 327.957L497.47 327.957L497.47 282.53L452.043 282.53Z" fill="url(#paint25_linear_1_63)" fill-opacity="0.58"/>
<path d="M621.562 113.012L621.562 158.438L666.988 158.438L666.988 113.012L621.562 113.012Z" fill="url(#paint26_linear_1_63)" fill-opacity="0.58"/>
<path d="M667.018 339.031L621.487 339.031L621.487 452.014L667.018 452.014L667.018 339.031Z" fill="url(#paint27_linear_1_63)" fill-opacity="0.58"/>
<path d="M339.031 621.562L339.031 666.988L666.988 666.988L666.988 621.562L339.031 621.562Z" fill="url(#paint28_linear_1_63)" fill-opacity="0.58"/>
<path d="M667.018 452.014L621.487 452.014L621.487 667.018L667.018 667.018L667.018 452.014Z" fill="url(#paint29_linear_1_63)" fill-opacity="0.58"/>
<path d="M452.043 452.043L452.043 497.47L497.47 497.47L497.47 452.043L452.043 452.043Z" fill="url(#paint30_linear_1_63)" fill-opacity="0.58"/>
<path d="M508.549 452.043L508.549 497.47L780 497.47L780 452.043L508.549 452.043Z" fill="url(#paint31_linear_1_63)" fill-opacity="0.58"/>
<path d="M497.47 508.549L452.043 508.549L452.043 780L497.47 780L497.47 508.549Z" fill="url(#paint32_linear_1_63)" fill-opacity="0.58"/>
<path d="M497.47 508.549L452.043 508.549L452.043 666.988L497.47 666.988L497.47 508.549Z" fill="url(#paint33_linear_1_63)" fill-opacity="0.58"/>
<path d="M452.043 621.562L452.043 666.988L497.47 666.988L497.47 621.562L452.043 621.562Z" fill="url(#paint34_linear_1_63)" fill-opacity="0.58"/>
<path d="M621.562 452.043L621.562 497.47L666.988 497.47L666.988 452.043L621.562 452.043Z" fill="url(#paint35_linear_1_63)" fill-opacity="0.58"/>
</g>
<defs>
<linearGradient id="paint0_linear_1_63" x1="1.74546e-05" y1="217.916" x2="223.512" y2="440.963" gradientUnits="userSpaceOnUse">
<stop stop-color="#1629F5"/>
<stop offset="1" stop-color="#F6ADBF"/>
</linearGradient>
<linearGradient id="paint1_linear_1_63" x1="1.74546e-05" y1="217.916" x2="223.512" y2="440.963" gradientUnits="userSpaceOnUse">
<stop stop-color="#1629F5"/>
<stop offset="1" stop-color="#F6ADBF"/>
</linearGradient>
<linearGradient id="paint2_linear_1_63" x1="1.74546e-05" y1="217.916" x2="223.512" y2="440.963" gradientUnits="userSpaceOnUse">
<stop stop-color="#1629F5"/>
<stop offset="1" stop-color="#F6ADBF"/>
</linearGradient>
<linearGradient id="paint3_linear_1_63" x1="1.74546e-05" y1="217.916" x2="223.512" y2="440.963" gradientUnits="userSpaceOnUse">
<stop stop-color="#1629F5"/>
<stop offset="1" stop-color="#F6ADBF"/>
</linearGradient>
<linearGradient id="paint4_linear_1_63" x1="1.74546e-05" y1="217.916" x2="223.512" y2="440.963" gradientUnits="userSpaceOnUse">
<stop stop-color="#1629F5"/>
<stop offset="1" stop-color="#F6ADBF"/>
</linearGradient>
<linearGradient id="paint5_linear_1_63" x1="1.74546e-05" y1="217.916" x2="223.512" y2="440.963" gradientUnits="userSpaceOnUse">
<stop stop-color="#1629F5"/>
<stop offset="1" stop-color="#F6ADBF"/>
</linearGradient>
<linearGradient id="paint6_linear_1_63" x1="1.74546e-05" y1="217.916" x2="223.512" y2="440.963" gradientUnits="userSpaceOnUse">
<stop stop-color="#1629F5"/>
<stop offset="1" stop-color="#F6ADBF"/>
</linearGradient>
<linearGradient id="paint7_linear_1_63" x1="1.74546e-05" y1="217.916" x2="223.512" y2="440.963" gradientUnits="userSpaceOnUse">
<stop stop-color="#1629F5"/>
<stop offset="1" stop-color="#F6ADBF"/>
</linearGradient>
<linearGradient id="paint8_linear_1_63" x1="1.74546e-05" y1="217.916" x2="223.512" y2="440.963" gradientUnits="userSpaceOnUse">
<stop stop-color="#1629F5"/>
<stop offset="1" stop-color="#F6ADBF"/>
</linearGradient>
<linearGradient id="paint9_linear_1_63" x1="0.000139525" y1="556.947" x2="223.512" y2="779.994" gradientUnits="userSpaceOnUse">
<stop stop-color="#1629F5"/>
<stop offset="1" stop-color="#F6ADBF"/>
</linearGradient>
<linearGradient id="paint10_linear_1_63" x1="0.000139525" y1="556.947" x2="223.512" y2="779.994" gradientUnits="userSpaceOnUse">
<stop stop-color="#1629F5"/>
<stop offset="1" stop-color="#F6ADBF"/>
</linearGradient>
<linearGradient id="paint11_linear_1_63" x1="0.000139525" y1="556.947" x2="223.512" y2="779.994" gradientUnits="userSpaceOnUse">
<stop stop-color="#1629F5"/>
<stop offset="1" stop-color="#F6ADBF"/>
</linearGradient>
<linearGradient id="paint12_linear_1_63" x1="0.000139525" y1="556.947" x2="223.512" y2="779.994" gradientUnits="userSpaceOnUse">
<stop stop-color="#1629F5"/>
<stop offset="1" stop-color="#F6ADBF"/>
</linearGradient>
<linearGradient id="paint13_linear_1_63" x1="0.000139525" y1="556.947" x2="223.512" y2="779.994" gradientUnits="userSpaceOnUse">
<stop stop-color="#1629F5"/>
<stop offset="1" stop-color="#F6ADBF"/>
</linearGradient>
<linearGradient id="paint14_linear_1_63" x1="0.000139525" y1="556.947" x2="223.512" y2="779.994" gradientUnits="userSpaceOnUse">
<stop stop-color="#1629F5"/>
<stop offset="1" stop-color="#F6ADBF"/>
</linearGradient>
<linearGradient id="paint15_linear_1_63" x1="0.000139525" y1="556.947" x2="223.512" y2="779.994" gradientUnits="userSpaceOnUse">
<stop stop-color="#1629F5"/>
<stop offset="1" stop-color="#F6ADBF"/>
</linearGradient>
<linearGradient id="paint16_linear_1_63" x1="0.000139525" y1="556.947" x2="223.512" y2="779.994" gradientUnits="userSpaceOnUse">
<stop stop-color="#1629F5"/>
<stop offset="1" stop-color="#F6ADBF"/>
</linearGradient>
<linearGradient id="paint17_linear_1_63" x1="0.000139525" y1="556.947" x2="223.512" y2="779.994" gradientUnits="userSpaceOnUse">
<stop stop-color="#1629F5"/>
<stop offset="1" stop-color="#F6ADBF"/>
</linearGradient>
<linearGradient id="paint18_linear_1_63" x1="339.031" y1="217.916" x2="562.543" y2="440.963" gradientUnits="userSpaceOnUse">
<stop stop-color="#F5161A"/>
<stop offset="1" stop-color="#F6ADBF" stop-opacity="0"/>
</linearGradient>
<linearGradient id="paint19_linear_1_63" x1="339.031" y1="217.916" x2="562.543" y2="440.963" gradientUnits="userSpaceOnUse">
<stop stop-color="#F5161A"/>
<stop offset="1" stop-color="#F6ADBF" stop-opacity="0"/>
</linearGradient>
<linearGradient id="paint20_linear_1_63" x1="339.031" y1="217.916" x2="562.543" y2="440.963" gradientUnits="userSpaceOnUse">
<stop stop-color="#F5161A"/>
<stop offset="1" stop-color="#F6ADBF" stop-opacity="0"/>
</linearGradient>
<linearGradient id="paint21_linear_1_63" x1="339.031" y1="217.916" x2="562.543" y2="440.963" gradientUnits="userSpaceOnUse">
<stop stop-color="#F5161A"/>
<stop offset="1" stop-color="#F6ADBF" stop-opacity="0"/>
</linearGradient>
<linearGradient id="paint22_linear_1_63" x1="339.031" y1="217.916" x2="562.543" y2="440.963" gradientUnits="userSpaceOnUse">
<stop stop-color="#F5161A"/>
<stop offset="1" stop-color="#F6ADBF" stop-opacity="0"/>
</linearGradient>
<linearGradient id="paint23_linear_1_63" x1="339.031" y1="217.916" x2="562.543" y2="440.963" gradientUnits="userSpaceOnUse">
<stop stop-color="#F5161A"/>
<stop offset="1" stop-color="#F6ADBF" stop-opacity="0"/>
</linearGradient>
<linearGradient id="paint24_linear_1_63" x1="339.031" y1="217.916" x2="562.543" y2="440.963" gradientUnits="userSpaceOnUse">
<stop stop-color="#F5161A"/>
<stop offset="1" stop-color="#F6ADBF" stop-opacity="0"/>
</linearGradient>
<linearGradient id="paint25_linear_1_63" x1="339.031" y1="217.916" x2="562.543" y2="440.963" gradientUnits="userSpaceOnUse">
<stop stop-color="#F5161A"/>
<stop offset="1" stop-color="#F6ADBF" stop-opacity="0"/>
</linearGradient>
<linearGradient id="paint26_linear_1_63" x1="339.031" y1="217.916" x2="562.543" y2="440.963" gradientUnits="userSpaceOnUse">
<stop stop-color="#F5161A"/>
<stop offset="1" stop-color="#F6ADBF" stop-opacity="0"/>
</linearGradient>
<linearGradient id="paint27_linear_1_63" x1="339.031" y1="556.947" x2="562.543" y2="779.994" gradientUnits="userSpaceOnUse">
<stop stop-color="#F5161A"/>
<stop offset="1" stop-color="#F6ADBF" stop-opacity="0"/>
</linearGradient>
<linearGradient id="paint28_linear_1_63" x1="339.031" y1="556.947" x2="562.543" y2="779.994" gradientUnits="userSpaceOnUse">
<stop stop-color="#F5161A"/>
<stop offset="1" stop-color="#F6ADBF" stop-opacity="0"/>
</linearGradient>
<linearGradient id="paint29_linear_1_63" x1="339.031" y1="556.947" x2="562.543" y2="779.994" gradientUnits="userSpaceOnUse">
<stop stop-color="#F5161A"/>
<stop offset="1" stop-color="#F6ADBF" stop-opacity="0"/>
</linearGradient>
<linearGradient id="paint30_linear_1_63" x1="339.031" y1="556.947" x2="562.543" y2="779.994" gradientUnits="userSpaceOnUse">
<stop stop-color="#F5161A"/>
<stop offset="1" stop-color="#F6ADBF" stop-opacity="0"/>
</linearGradient>
<linearGradient id="paint31_linear_1_63" x1="339.031" y1="556.947" x2="562.543" y2="779.994" gradientUnits="userSpaceOnUse">
<stop stop-color="#F5161A"/>
<stop offset="1" stop-color="#F6ADBF" stop-opacity="0"/>
</linearGradient>
<linearGradient id="paint32_linear_1_63" x1="339.031" y1="556.947" x2="562.543" y2="779.994" gradientUnits="userSpaceOnUse">
<stop stop-color="#F5161A"/>
<stop offset="1" stop-color="#F6ADBF" stop-opacity="0"/>
</linearGradient>
<linearGradient id="paint33_linear_1_63" x1="339.031" y1="556.947" x2="562.543" y2="779.994" gradientUnits="userSpaceOnUse">
<stop stop-color="#F5161A"/>
<stop offset="1" stop-color="#F6ADBF" stop-opacity="0"/>
</linearGradient>
<linearGradient id="paint34_linear_1_63" x1="339.031" y1="556.947" x2="562.543" y2="779.994" gradientUnits="userSpaceOnUse">
<stop stop-color="#F5161A"/>
<stop offset="1" stop-color="#F6ADBF" stop-opacity="0"/>
</linearGradient>
<linearGradient id="paint35_linear_1_63" x1="339.031" y1="556.947" x2="562.543" y2="779.994" gradientUnits="userSpaceOnUse">
<stop stop-color="#F5161A"/>
<stop offset="1" stop-color="#F6ADBF" stop-opacity="0"/>
</linearGradient>
</defs>
</svg>
