<svg width="429" height="486" viewBox="0 0 429 486" fill="none" xmlns="http://www.w3.org/2000/svg">
<path d="M-56.3393 361.181V311.134H67.8501V361.181H-56.3393Z" fill="url(#paint0_linear_1_41)" fill-opacity="0.44"/>
<path d="M254.216 0.660706H304.148V361.148H254.216V0.660706Z" fill="url(#paint1_linear_1_41)" fill-opacity="0.44"/>
<path d="M67.8501 361.181V311.134H304.181V361.181H67.8501Z" fill="url(#paint2_linear_1_41)" fill-opacity="0.44"/>
<path d="M67.8827 124.883H117.815V174.815H67.8827V124.883Z" fill="url(#paint3_linear_1_41)" fill-opacity="0.44"/>
<path d="M67.8827 186.994H117.815V485.37H67.8827V186.994Z" fill="url(#paint4_linear_1_41)" fill-opacity="0.44"/>
<path d="M129.994 174.815V124.883H428.37V174.815H129.994Z" fill="url(#paint5_linear_1_41)" fill-opacity="0.44"/>
<path d="M129.994 174.815V124.883H304.148V174.815H129.994Z" fill="url(#paint6_linear_1_41)" fill-opacity="0.44"/>
<path d="M254.216 124.883L304.148 124.883V174.815L254.216 174.815V124.883Z" fill="url(#paint7_linear_1_41)" fill-opacity="0.44"/>
<path d="M67.8827 311.216H117.815V361.148H67.8827V311.216Z" fill="url(#paint8_linear_1_41)" fill-opacity="0.44"/>
<defs>
<linearGradient id="paint0_linear_1_41" x1="94.3295" y1="0.660701" x2="430.619" y2="157.509" gradientUnits="userSpaceOnUse">
<stop stop-color="#FF7396" stop-opacity="0.65"/>
<stop offset="1" stop-color="#E20038" stop-opacity="0"/>
</linearGradient>
<linearGradient id="paint1_linear_1_41" x1="94.3295" y1="0.660701" x2="430.619" y2="157.509" gradientUnits="userSpaceOnUse">
<stop stop-color="#FF7396" stop-opacity="0.65"/>
<stop offset="1" stop-color="#E20038" stop-opacity="0"/>
</linearGradient>
<linearGradient id="paint2_linear_1_41" x1="94.3295" y1="0.660701" x2="430.619" y2="157.509" gradientUnits="userSpaceOnUse">
<stop stop-color="#FF7396" stop-opacity="0.65"/>
<stop offset="1" stop-color="#E20038" stop-opacity="0"/>
</linearGradient>
<linearGradient id="paint3_linear_1_41" x1="94.3295" y1="0.660701" x2="430.619" y2="157.509" gradientUnits="userSpaceOnUse">
<stop stop-color="#FF7396" stop-opacity="0.65"/>
<stop offset="1" stop-color="#E20038" stop-opacity="0"/>
</linearGradient>
<linearGradient id="paint4_linear_1_41" x1="94.3295" y1="0.660701" x2="430.619" y2="157.509" gradientUnits="userSpaceOnUse">
<stop stop-color="#FF7396" stop-opacity="0.65"/>
<stop offset="1" stop-color="#E20038" stop-opacity="0"/>
</linearGradient>
<linearGradient id="paint5_linear_1_41" x1="94.3295" y1="0.660701" x2="430.619" y2="157.509" gradientUnits="userSpaceOnUse">
<stop stop-color="#FF7396" stop-opacity="0.65"/>
<stop offset="1" stop-color="#E20038" stop-opacity="0"/>
</linearGradient>
<linearGradient id="paint6_linear_1_41" x1="94.3295" y1="0.660701" x2="430.619" y2="157.509" gradientUnits="userSpaceOnUse">
<stop stop-color="#FF7396" stop-opacity="0.65"/>
<stop offset="1" stop-color="#E20038" stop-opacity="0"/>
</linearGradient>
<linearGradient id="paint7_linear_1_41" x1="94.3295" y1="0.660701" x2="430.619" y2="157.509" gradientUnits="userSpaceOnUse">
<stop stop-color="#FF7396" stop-opacity="0.65"/>
<stop offset="1" stop-color="#E20038" stop-opacity="0"/>
</linearGradient>
<linearGradient id="paint8_linear_1_41" x1="94.3295" y1="0.660701" x2="430.619" y2="157.509" gradientUnits="userSpaceOnUse">
<stop stop-color="#FF7396" stop-opacity="0.65"/>
<stop offset="1" stop-color="#E20038" stop-opacity="0"/>
</linearGradient>
</defs>
</svg>
