<svg width="50" height="50" viewBox="0 0 50 50" fill="none" xmlns="http://www.w3.org/2000/svg">
<path d="M27.5949 7.54201C27.5949 6.88285 27.333 6.25068 26.8669 5.78459C26.4008 5.31849 25.7687 5.05664 25.1095 5.05664C24.4503 5.05664 23.8182 5.31849 23.3521 5.78459C22.886 6.25068 22.6241 6.88285 22.6241 7.54201V10.0274C22.6241 10.6865 22.886 11.3187 23.3521 11.7848C23.8182 12.2509 24.4503 12.5127 25.1095 12.5127C25.7687 12.5127 26.4008 12.2509 26.8669 11.7848C27.333 11.3187 27.5949 10.6865 27.5949 10.0274V7.54201ZM39.1692 14.3942C39.622 13.9254 39.8725 13.2976 39.8668 12.646C39.8611 11.9943 39.5998 11.3709 39.1389 10.9101C38.6781 10.4493 38.0548 10.1879 37.4031 10.1823C36.7515 10.1766 36.1237 10.4271 35.6549 10.8799L33.8978 12.637C33.445 13.1058 33.1945 13.7336 33.2002 14.3852C33.2058 15.0369 33.4672 15.6602 33.928 16.121C34.3888 16.5819 35.0122 16.8432 35.6639 16.8489C36.3155 16.8546 36.9433 16.6041 37.4121 16.1513L39.1692 14.3942ZM44.9924 24.9396C44.9924 25.5987 44.7306 26.2309 44.2645 26.697C43.7984 27.1631 43.1662 27.4249 42.5071 27.4249H40.0217C39.3625 27.4249 38.7304 27.1631 38.2643 26.697C37.7982 26.2309 37.5363 25.5987 37.5363 24.9396C37.5363 24.2804 37.7982 23.6483 38.2643 23.1822C38.7304 22.7161 39.3625 22.4542 40.0217 22.4542H42.5071C43.1662 22.4542 43.7984 22.7161 44.2645 23.1822C44.7306 23.6483 44.9924 24.2804 44.9924 24.9396ZM12.8069 16.1513C13.0362 16.3887 13.3104 16.578 13.6137 16.7083C13.9169 16.8385 14.243 16.9071 14.573 16.91C14.903 16.9128 15.2303 16.85 15.5358 16.725C15.8412 16.6 16.1187 16.4155 16.352 16.1821C16.5854 15.9488 16.77 15.6713 16.8949 15.3658C17.0199 15.0604 17.0828 14.7331 17.0799 14.4031C17.077 14.0731 17.0085 13.747 16.8782 13.4438C16.748 13.1405 16.5586 12.8663 16.3212 12.637L14.5641 10.8799C14.0953 10.4271 13.4675 10.1766 12.8159 10.1823C12.1642 10.1879 11.5409 10.4493 11.0801 10.9101C10.6192 11.3709 10.3579 11.9943 10.3522 12.646C10.3465 13.2976 10.597 13.9254 11.0498 14.3942L12.8069 16.1513ZM12.6827 24.9396C12.6827 25.5987 12.4208 26.2309 11.9547 26.697C11.4886 27.1631 10.8565 27.4249 10.1973 27.4249H7.71193C7.05277 27.4249 6.42061 27.1631 5.95451 26.697C5.48841 26.2309 5.22656 25.5987 5.22656 24.9396C5.22656 24.2804 5.48841 23.6483 5.95451 23.1822C6.42061 22.7161 7.05277 22.4542 7.71193 22.4542H10.1973C10.8565 22.4542 11.4886 22.7161 11.9547 23.1822C12.4208 23.6483 12.6827 24.2804 12.6827 24.9396ZM20.1388 39.8518V37.3664H30.0802V39.8518C30.0802 41.1701 29.5565 42.4344 28.6243 43.3666C27.6921 44.2988 26.4278 44.8225 25.1095 44.8225C23.7912 44.8225 22.5269 44.2988 21.5947 43.3666C20.6625 42.4344 20.1388 41.1701 20.1388 39.8518ZM30.0802 34.881C30.1175 34.036 30.5972 33.2755 31.2658 32.7461C32.8879 31.4668 34.0712 29.7139 34.6512 27.731C35.2312 25.7482 35.179 23.6339 34.5019 21.6821C33.8249 19.7302 32.5566 18.0378 30.8733 16.8401C29.19 15.6423 27.1754 14.9987 25.1095 14.9987C23.0436 14.9987 21.029 15.6423 19.3457 16.8401C17.6624 18.0378 16.3941 19.7302 15.7171 21.6821C15.04 23.6339 14.9878 25.7482 15.5678 27.731C16.1478 29.7139 17.3311 31.4668 18.9532 32.7461C19.6243 33.2755 20.1015 34.036 20.1363 34.881H30.0802Z" fill="white"/>
</svg>
