<svg width="46" height="46" viewBox="0 0 46 46" fill="none" xmlns="http://www.w3.org/2000/svg">
<path d="M21.4725 27.5071L10.3165 26.095C9.53202 26.0008 9.02177 25.5772 8.78578 24.824C8.5498 24.0709 8.71486 23.4276 9.28097 22.8941L28.5332 4.44215C28.6901 4.28524 28.8783 4.16788 29.098 4.09006C29.3177 4.01223 29.6158 3.97269 29.9924 3.97144C30.62 3.97144 31.0989 4.23817 31.429 4.77165C31.7591 5.30512 31.7666 5.85429 31.4516 6.41915L25.2382 18.0928L36.3941 19.505C37.1786 19.5991 37.6889 20.0228 37.9248 20.7759C38.1608 21.529 37.9958 22.1724 37.4296 22.7058L18.1775 41.1578C18.0206 41.3147 17.8323 41.4327 17.6126 41.5118C17.3929 41.5909 17.0948 41.6298 16.7182 41.6285C16.0906 41.6285 15.6118 41.3618 15.2816 40.8283C14.9515 40.2948 14.944 39.7457 15.259 39.1808L21.4725 27.5071Z" fill="white"/>
</svg>
