<svg width="47" height="47" viewBox="0 0 47 47" fill="none" xmlns="http://www.w3.org/2000/svg">
<path d="M31.5013 14.4766H15.6093C15.2104 14.4766 14.887 14.8 14.887 15.1989V31.0909C14.887 31.4899 15.2104 31.8133 15.6093 31.8133H31.5013C31.9003 31.8133 32.2237 31.4899 32.2237 31.0909V15.1989C32.2237 14.8 31.9003 14.4766 31.5013 14.4766Z" fill="white"/>
<path d="M42.3368 17.366C42.7199 17.366 43.0874 17.2138 43.3583 16.9428C43.6293 16.6719 43.7815 16.3044 43.7815 15.9213C43.7815 15.5381 43.6293 15.1706 43.3583 14.8997C43.0874 14.6287 42.7199 14.4765 42.3368 14.4765H40.892V11.5871C40.8904 10.0549 40.281 8.586 39.1976 7.50261C38.1142 6.41922 36.6453 5.80983 35.1131 5.80816H32.2237V4.36343C32.2237 3.98026 32.0715 3.61279 31.8005 3.34185C31.5296 3.07091 31.1621 2.9187 30.7789 2.9187C30.3958 2.9187 30.0283 3.07091 29.7574 3.34185C29.4864 3.61279 29.3342 3.98026 29.3342 4.36343V5.80816H25V4.36343C25 3.98026 24.8478 3.61279 24.5769 3.34185C24.3059 3.07091 23.9385 2.9187 23.5553 2.9187C23.1721 2.9187 22.8047 3.07091 22.5337 3.34185C22.2628 3.61279 22.1106 3.98026 22.1106 4.36343V5.80816H17.7764V4.36343C17.7764 3.98026 17.6242 3.61279 17.3532 3.34185C17.0823 3.07091 16.7148 2.9187 16.3317 2.9187C15.9485 2.9187 15.581 3.07091 15.3101 3.34185C15.0391 3.61279 14.8869 3.98026 14.8869 4.36343V5.80816H11.9975C10.4653 5.80983 8.9964 6.41922 7.91301 7.50261C6.82962 8.586 6.22023 10.0549 6.21856 11.5871V14.4765H4.77383C4.39066 14.4765 4.02319 14.6287 3.75225 14.8997C3.48131 15.1706 3.3291 15.5381 3.3291 15.9213C3.3291 16.3044 3.48131 16.6719 3.75225 16.9428C4.02319 17.2138 4.39066 17.366 4.77383 17.366H6.21856V21.7002H4.77383C4.39066 21.7002 4.02319 21.8524 3.75225 22.1233C3.48131 22.3943 3.3291 22.7617 3.3291 23.1449C3.3291 23.5281 3.48131 23.8955 3.75225 24.1665C4.02319 24.4374 4.39066 24.5896 4.77383 24.5896H6.21856V28.9238H4.77383C4.39066 28.9238 4.02319 29.076 3.75225 29.347C3.48131 29.6179 3.3291 29.9854 3.3291 30.3685C3.3291 30.7517 3.48131 31.1192 3.75225 31.3901C4.02319 31.6611 4.39066 31.8133 4.77383 31.8133H6.21856V34.7027C6.22023 36.2349 6.82962 37.7038 7.91301 38.7872C8.9964 39.8706 10.4653 40.48 11.9975 40.4816H14.8869V41.9264C14.8869 42.3095 15.0391 42.677 15.3101 42.9479C15.581 43.2189 15.9485 43.3711 16.3317 43.3711C16.7148 43.3711 17.0823 43.2189 17.3532 42.9479C17.6242 42.677 17.7764 42.3095 17.7764 41.9264V40.4816H22.1106V41.9264C22.1106 42.3095 22.2628 42.677 22.5337 42.9479C22.8047 43.2189 23.1721 43.3711 23.5553 43.3711C23.9385 43.3711 24.3059 43.2189 24.5769 42.9479C24.8478 42.677 25 42.3095 25 41.9264V40.4816H29.3342V41.9264C29.3342 42.3095 29.4864 42.677 29.7574 42.9479C30.0283 43.2189 30.3958 43.3711 30.7789 43.3711C31.1621 43.3711 31.5296 43.2189 31.8005 42.9479C32.0715 42.677 32.2237 42.3095 32.2237 41.9264V40.4816H35.1131C36.6453 40.48 38.1142 39.8706 39.1976 38.7872C40.281 37.7038 40.8904 36.2349 40.892 34.7027V31.8133H42.3368C42.7199 31.8133 43.0874 31.6611 43.3583 31.3901C43.6293 31.1192 43.7815 30.7517 43.7815 30.3685C43.7815 29.9854 43.6293 29.6179 43.3583 29.347C43.0874 29.076 42.7199 28.9238 42.3368 28.9238H40.892V24.5896H42.3368C42.7199 24.5896 43.0874 24.4374 43.3583 24.1665C43.6293 23.8955 43.7815 23.5281 43.7815 23.1449C43.7815 22.7617 43.6293 22.3943 43.3583 22.1233C43.0874 21.8524 42.7199 21.7002 42.3368 21.7002H40.892V17.366H42.3368ZM35.1131 31.8133C35.1131 32.5796 34.8087 33.3145 34.2668 33.8564C33.7249 34.3983 32.99 34.7027 32.2237 34.7027H14.8869C14.1206 34.7027 13.3857 34.3983 12.8438 33.8564C12.3019 33.3145 11.9975 32.5796 11.9975 31.8133V14.4765C11.9975 13.7102 12.3019 12.9753 12.8438 12.4334C13.3857 11.8915 14.1206 11.5871 14.8869 11.5871H32.2237C32.99 11.5871 33.7249 11.8915 34.2668 12.4334C34.8087 12.9753 35.1131 13.7102 35.1131 14.4765V31.8133Z" fill="white"/>
</svg>
