<svg width="46" height="46" viewBox="0 0 46 46" fill="none" xmlns="http://www.w3.org/2000/svg">
<path d="M22.5911 36.4985C23.0905 36.4985 23.5694 36.6969 23.9225 37.05C24.2756 37.4031 24.474 37.882 24.474 38.3814V40.2642C24.474 40.7636 24.2756 41.2425 23.9225 41.5956C23.5694 41.9487 23.0905 42.1471 22.5911 42.1471C22.0917 42.1471 21.6128 41.9487 21.2597 41.5956C20.9066 41.2425 20.7083 40.7636 20.7083 40.2642V38.3814C20.7083 37.882 20.9066 37.4031 21.2597 37.05C21.6128 36.6969 22.0917 36.4985 22.5911 36.4985ZM34.5736 32.6387L35.9048 33.9698C36.2477 34.3249 36.4375 34.8006 36.4332 35.2942C36.4289 35.7879 36.2309 36.2602 35.8818 36.6093C35.5327 36.9584 35.0605 37.1564 34.5668 37.1607C34.0731 37.1649 33.5975 36.9752 33.2424 36.6322L31.9112 35.301C31.5683 34.9459 31.3785 34.4703 31.3828 33.9766C31.3871 33.4829 31.5851 33.0107 31.9342 32.6616C32.2833 32.3125 32.7555 32.1145 33.2492 32.1102C33.7429 32.1059 34.2185 32.2957 34.5736 32.6387ZM10.6086 32.6387C10.9475 32.301 11.4021 32.1049 11.8803 32.0903C12.3584 32.0757 12.8242 32.2437 13.183 32.56C13.5418 32.8764 13.7667 33.3175 13.8121 33.7937C13.8575 34.27 13.7199 34.7456 13.4273 35.124L13.271 35.301L11.9398 36.6322C11.601 36.9699 11.1463 37.1659 10.6681 37.1805C10.19 37.1951 9.72422 37.0272 9.36541 36.7108C9.00661 36.3944 8.78168 35.9533 8.73631 35.4771C8.69095 35.0009 8.82855 34.5253 9.12117 34.1468L9.27744 33.9698L10.6086 32.6387ZM22.5911 12.0214C25.5873 12.0214 28.4608 13.2116 30.5794 15.3303C32.698 17.4489 33.8882 20.3223 33.8882 23.3185C33.8882 26.3147 32.698 29.1882 30.5794 31.3068C28.4608 33.4254 25.5873 34.6157 22.5911 34.6157C19.5949 34.6157 16.7215 33.4254 14.6028 31.3068C12.4842 29.1882 11.294 26.3147 11.294 23.3185C11.294 20.3223 12.4842 17.4489 14.6028 15.3303C16.7215 13.2116 19.5949 12.0214 22.5911 12.0214ZM7.52827 21.4357C8.00817 21.4362 8.46976 21.62 8.81872 21.9494C9.16768 22.2789 9.37768 22.7291 9.4058 23.2082C9.43392 23.6873 9.27806 24.159 8.97004 24.527C8.66202 24.895 8.22511 25.1315 7.74856 25.1882L7.52827 25.2014H5.64542C5.16552 25.2009 4.70393 25.0171 4.35497 24.6877C4.00601 24.3582 3.79601 23.908 3.76789 23.4289C3.73976 22.9498 3.89563 22.4781 4.20365 22.1101C4.51167 21.742 4.94858 21.5055 5.42512 21.4489L5.64542 21.4357H7.52827ZM39.5368 21.4357C40.0362 21.4357 40.5151 21.634 40.8682 21.9872C41.2213 22.3403 41.4196 22.8192 41.4196 23.3185C41.4196 23.8179 41.2213 24.2968 40.8682 24.6499C40.5151 25.003 40.0362 25.2014 39.5368 25.2014H37.6539C37.1546 25.2014 36.6757 25.003 36.3226 24.6499C35.9695 24.2968 35.7711 23.8179 35.7711 23.3185C35.7711 22.8192 35.9695 22.3403 36.3226 21.9872C36.6757 21.634 37.1546 21.4357 37.6539 21.4357H39.5368ZM9.27744 10.0049C9.60166 9.68069 10.033 9.48594 10.4906 9.45717C10.9482 9.4284 11.4005 9.56757 11.7628 9.84859L11.9398 10.0049L13.271 11.336C13.6087 11.6749 13.8047 12.1295 13.8193 12.6077C13.8339 13.0858 13.666 13.5516 13.3496 13.9104C13.0332 14.2692 12.5921 14.4942 12.1159 14.5395C11.6397 14.5849 11.164 14.4473 10.7856 14.1547L10.6086 13.9984L9.27744 12.6672C8.92446 12.3141 8.72617 11.8353 8.72617 11.336C8.72617 10.8368 8.92446 10.358 9.27744 10.0049ZM35.9048 10.0049C36.2577 10.358 36.456 10.8368 36.456 11.336C36.456 11.8353 36.2577 12.3141 35.9048 12.6672L34.5736 13.9984C34.3999 14.1782 34.1921 14.3217 33.9624 14.4204C33.7327 14.519 33.4856 14.571 33.2356 14.5731C32.9856 14.5753 32.7377 14.5277 32.5063 14.433C32.2749 14.3383 32.0647 14.1985 31.8879 14.0217C31.7111 13.845 31.5713 13.6347 31.4766 13.4033C31.382 13.1719 31.3343 12.924 31.3365 12.674C31.3387 12.424 31.3906 12.1769 31.4893 11.9472C31.588 11.7175 31.7314 11.5097 31.9112 11.336L33.2424 10.0049C33.5955 9.65189 34.0743 9.4536 34.5736 9.4536C35.0729 9.4536 35.5517 9.65189 35.9048 10.0049ZM22.5911 4.48999C23.0905 4.48999 23.5694 4.68836 23.9225 5.04147C24.2756 5.39457 24.474 5.87348 24.474 6.37284V8.2557C24.474 8.75506 24.2756 9.23397 23.9225 9.58708C23.5694 9.94018 23.0905 10.1386 22.5911 10.1386C22.0917 10.1386 21.6128 9.94018 21.2597 9.58708C20.9066 9.23397 20.7083 8.75506 20.7083 8.2557V6.37284C20.7083 5.87348 20.9066 5.39457 21.2597 5.04147C21.6128 4.68836 22.0917 4.48999 22.5911 4.48999Z" fill="white"/>
</svg>
