<svg width="891" height="337" viewBox="0 0 891 337" fill="none" xmlns="http://www.w3.org/2000/svg">
<path d="M640.762 272.805V247.002H826.868V272.805H640.762Z" fill="url(#paint0_linear_1_43)"/>
<path d="M801.09 86.5143H826.868L826.868 272.805L801.09 272.805V86.5143Z" fill="url(#paint1_linear_1_43)"/>
<path d="M730.671 272.805V247.002H826.868V272.805H730.671Z" fill="url(#paint2_linear_1_43)"/>
<path d="M704.893 182.806H730.671V337H704.893V182.806Z" fill="url(#paint3_linear_1_43)"/>
<path d="M736.959 176.513V150.709H891V176.513H736.959Z" fill="url(#paint4_linear_1_43)"/>
<path d="M736.959 176.513V150.709H826.869V176.513H736.959Z" fill="url(#paint5_linear_1_43)"/>
<path d="M704.893 337V182.806H730.671V337H704.893Z" fill="url(#paint6_linear_1_43)"/>
<path d="M801.09 150.709L826.869 150.709V176.513L801.09 176.513V150.709Z" fill="url(#paint7_linear_1_43)"/>
<path d="M704.893 247.001L730.671 247.002V272.805L704.893 272.805V247.001Z" fill="url(#paint8_linear_1_43)"/>
<path d="M0 176.651V0H124.085V38.6425H47.9106V69.0044H116.502V107.647H47.9106V176.651H0Z" fill="url(#paint9_linear_1_43)"/>
<path d="M212.648 118.688V44.1628H260.214V176.651H215.061V151.465H213.682C210.81 159.918 205.783 166.531 198.603 171.303C191.422 176.019 182.891 178.376 173.01 178.376C163.761 178.376 155.661 176.249 148.71 171.993C141.816 167.738 136.445 161.873 132.596 154.397C128.805 146.922 126.88 138.354 126.823 128.693V44.1628H174.389V118.688C174.446 125.243 176.112 130.39 179.387 134.127C182.718 137.865 187.372 139.734 193.346 139.734C197.31 139.734 200.728 138.9 203.6 137.232C206.53 135.507 208.771 133.092 210.322 129.987C211.93 126.824 212.706 123.058 212.648 118.688Z" fill="url(#paint10_linear_1_43)"/>
<path d="M356.059 44.1628V78.665H268.855V44.1628H356.059ZM285.744 12.4208H333.31V134.041C333.31 135.881 333.626 137.434 334.258 138.699C334.89 139.906 335.866 140.826 337.188 141.459C338.509 142.034 340.203 142.322 342.272 142.322C343.708 142.322 345.374 142.149 347.269 141.804C349.223 141.459 350.659 141.171 351.578 140.941L358.472 174.409C356.346 175.041 353.301 175.817 349.337 176.738C345.431 177.658 340.778 178.261 335.378 178.549C324.463 179.124 315.3 178.003 307.89 175.185C300.479 172.31 294.907 167.796 291.173 161.643C287.439 155.49 285.629 147.784 285.744 138.526V12.4208Z" fill="url(#paint11_linear_1_43)"/>
<path d="M454.014 118.688V44.1628H501.58V176.651H456.427V151.465H455.048C452.176 159.918 447.15 166.531 439.969 171.303C432.788 176.019 424.257 178.376 414.376 178.376C405.127 178.376 397.027 176.249 390.076 171.993C383.183 167.738 377.811 161.873 373.962 154.397C370.171 146.922 368.246 138.354 368.189 128.693V44.1628H415.755V118.688C415.812 125.243 417.478 130.39 420.753 134.127C424.085 137.865 428.738 139.734 434.712 139.734C438.676 139.734 442.094 138.9 444.967 137.232C447.896 135.507 450.137 133.092 451.688 129.987C453.296 126.824 454.072 123.058 454.014 118.688Z" fill="url(#paint12_linear_1_43)"/>
<path d="M518.493 176.651V44.1628H564.68V69.3494H566.059C568.472 60.0338 572.292 53.2196 577.52 48.9069C582.805 44.5941 588.98 42.4377 596.046 42.4377C598.114 42.4377 600.154 42.6102 602.164 42.9552C604.232 43.2428 606.214 43.674 608.11 44.2491V84.8754C605.755 84.0704 602.854 83.4666 599.407 83.064C595.96 82.6615 593.002 82.4603 590.531 82.4603C585.878 82.4603 581.685 83.5241 577.951 85.6517C574.274 87.7218 571.373 90.6545 569.247 94.4498C567.122 98.1875 566.059 102.587 566.059 107.647V176.651H518.493Z" fill="url(#paint13_linear_1_43)"/>
<path d="M647.147 178.721C638.702 178.721 631.234 177.341 624.743 174.581C618.309 171.763 613.253 167.508 609.577 161.815C605.9 156.122 604.062 148.877 604.062 140.079C604.062 132.833 605.297 126.652 607.767 121.534C610.237 116.359 613.684 112.132 618.107 108.854C622.531 105.577 627.672 103.075 633.532 101.35C639.449 99.6251 645.826 98.5038 652.662 97.9862C660.072 97.4112 666.018 96.7212 670.499 95.9161C675.037 95.0536 678.312 93.8747 680.322 92.3796C682.333 90.827 683.338 88.7857 683.338 86.2555V85.9105C683.338 82.4603 682.017 79.8151 679.375 77.975C676.732 76.1349 673.343 75.2148 669.206 75.2148C664.668 75.2148 660.963 76.2211 658.09 78.2337C655.276 80.1889 653.581 83.2078 653.006 87.2906H609.232C609.806 79.2401 612.363 71.8221 616.901 65.0366C621.497 58.1937 628.189 52.7309 636.979 48.6481C645.768 44.5078 656.74 42.4377 669.896 42.4377C679.375 42.4377 687.877 43.559 695.402 45.8017C702.928 47.9868 709.333 51.0633 714.618 55.031C719.903 58.9413 723.924 63.5416 726.682 68.8319C729.497 74.0647 730.904 79.7576 730.904 85.9105V176.651H686.44V158.02H685.406C682.764 162.965 679.547 166.962 675.755 170.01C672.021 173.057 667.742 175.271 662.916 176.651C658.148 178.031 652.892 178.721 647.147 178.721ZM662.657 148.704C666.277 148.704 669.666 147.957 672.826 146.462C676.043 144.967 678.656 142.81 680.667 139.993C682.678 137.175 683.683 133.754 683.683 129.728V118.688C682.419 119.205 681.069 119.694 679.633 120.154C678.254 120.614 676.761 121.045 675.152 121.448C673.601 121.85 671.935 122.224 670.154 122.569C668.431 122.914 666.621 123.23 664.726 123.518C661.049 124.093 658.033 125.042 655.678 126.364C653.38 127.629 651.656 129.211 650.508 131.108C649.416 132.948 648.87 135.019 648.87 137.319C648.87 140.999 650.163 143.817 652.748 145.772C655.333 147.727 658.636 148.704 662.657 148.704Z" fill="url(#paint14_linear_1_43)"/>
<defs>
<linearGradient id="paint0_linear_1_43" x1="276.962" y1="-2.97198e-06" x2="575.554" y2="368.209" gradientUnits="userSpaceOnUse">
<stop stop-color="#FF962D"/>
<stop offset="1" stop-color="#E20038"/>
</linearGradient>
<linearGradient id="paint1_linear_1_43" x1="276.962" y1="-2.97198e-06" x2="575.554" y2="368.209" gradientUnits="userSpaceOnUse">
<stop stop-color="#FF962D"/>
<stop offset="1" stop-color="#E20038"/>
</linearGradient>
<linearGradient id="paint2_linear_1_43" x1="276.962" y1="-2.97198e-06" x2="575.554" y2="368.209" gradientUnits="userSpaceOnUse">
<stop stop-color="#FF962D"/>
<stop offset="1" stop-color="#E20038"/>
</linearGradient>
<linearGradient id="paint3_linear_1_43" x1="276.962" y1="-2.97198e-06" x2="575.554" y2="368.209" gradientUnits="userSpaceOnUse">
<stop stop-color="#FF962D"/>
<stop offset="1" stop-color="#E20038"/>
</linearGradient>
<linearGradient id="paint4_linear_1_43" x1="276.962" y1="-2.97198e-06" x2="575.554" y2="368.209" gradientUnits="userSpaceOnUse">
<stop stop-color="#FF962D"/>
<stop offset="1" stop-color="#E20038"/>
</linearGradient>
<linearGradient id="paint5_linear_1_43" x1="276.962" y1="-2.97198e-06" x2="575.554" y2="368.209" gradientUnits="userSpaceOnUse">
<stop stop-color="#FF962D"/>
<stop offset="1" stop-color="#E20038"/>
</linearGradient>
<linearGradient id="paint6_linear_1_43" x1="276.962" y1="-2.97198e-06" x2="575.554" y2="368.209" gradientUnits="userSpaceOnUse">
<stop stop-color="#FF962D"/>
<stop offset="1" stop-color="#E20038"/>
</linearGradient>
<linearGradient id="paint7_linear_1_43" x1="276.962" y1="-2.97198e-06" x2="575.554" y2="368.209" gradientUnits="userSpaceOnUse">
<stop stop-color="#FF962D"/>
<stop offset="1" stop-color="#E20038"/>
</linearGradient>
<linearGradient id="paint8_linear_1_43" x1="276.962" y1="-2.97198e-06" x2="575.554" y2="368.209" gradientUnits="userSpaceOnUse">
<stop stop-color="#FF962D"/>
<stop offset="1" stop-color="#E20038"/>
</linearGradient>
<linearGradient id="paint9_linear_1_43" x1="276.962" y1="-2.97198e-06" x2="575.554" y2="368.209" gradientUnits="userSpaceOnUse">
<stop stop-color="#FF962D"/>
<stop offset="1" stop-color="#E20038"/>
</linearGradient>
<linearGradient id="paint10_linear_1_43" x1="276.962" y1="-2.97198e-06" x2="575.554" y2="368.209" gradientUnits="userSpaceOnUse">
<stop stop-color="#FF962D"/>
<stop offset="1" stop-color="#E20038"/>
</linearGradient>
<linearGradient id="paint11_linear_1_43" x1="276.962" y1="-2.97198e-06" x2="575.554" y2="368.209" gradientUnits="userSpaceOnUse">
<stop stop-color="#FF962D"/>
<stop offset="1" stop-color="#E20038"/>
</linearGradient>
<linearGradient id="paint12_linear_1_43" x1="276.962" y1="-2.97198e-06" x2="575.554" y2="368.209" gradientUnits="userSpaceOnUse">
<stop stop-color="#FF962D"/>
<stop offset="1" stop-color="#E20038"/>
</linearGradient>
<linearGradient id="paint13_linear_1_43" x1="276.962" y1="-2.97198e-06" x2="575.554" y2="368.209" gradientUnits="userSpaceOnUse">
<stop stop-color="#FF962D"/>
<stop offset="1" stop-color="#E20038"/>
</linearGradient>
<linearGradient id="paint14_linear_1_43" x1="276.962" y1="-2.97198e-06" x2="575.554" y2="368.209" gradientUnits="userSpaceOnUse">
<stop stop-color="#FF962D"/>
<stop offset="1" stop-color="#E20038"/>
</linearGradient>
</defs>
</svg>
